<?xml version="1.0" encoding="utf-8"?><svg viewBox="0 0 201 199" xmlns="http://www.w3.org/2000/svg" xmlns:xlink="http://www.w3.org/1999/xlink"><style>:root>svg{display:none}:root>svg:target{display:block}</style><svg fill="none" viewBox="0 0 70 70" id="Group_3" xmlns="http://www.w3.org/2000/svg"><path d="m52.673 34.5-26.51 15.155v-30.31L52.673 34.5z" fill="#fff"/><circle cx="35" cy="35" r="34" stroke="#fff" stroke-width="2"/></svg><svg viewBox="0 0 201 199" id="buy-price-icon" xmlns="http://www.w3.org/2000/svg"><path d="m100.5 0 23.23 43.977 47.834-14.834L156.581 76.5 201 99.5l-44.419 22.999 14.983 47.358-47.834-14.834L100.5 199l-23.23-43.977-47.834 14.834 14.983-47.358L0 99.5l44.419-22.999-14.983-47.358L77.27 43.977 100.5 0z"/></svg><svg viewBox="0 0 158 36" id="logo" xmlns="http://www.w3.org/2000/svg"><mask id="ca" style="mask-type:alpha" maskUnits="userSpaceOnUse" x="0" y="0" width="158" height="36"><path d="M0 .946h158v34.362H0V.946z" fill="#fff"/></mask><g mask="url(#ca)"><path fill-rule="evenodd" clip-rule="evenodd" d="M4.767 24.107 28.005 1.929v7.45c0 .43-.179.844-.498 1.149L9.023 28.168l-4.256-4.061zm7.11 6.785L28.005 15.5v7.45c0 .43-.179.844-.498 1.149l-7.119 6.793 1.401 1.338 4.256 4.06h-8.511l-1.401-1.336-4.256-4.062zm146.759-6.822 4.131 2.802a10.652 10.652 0 0 1-8.366 4.017c-5.856 0-10.602-4.664-10.602-10.416 0-5.753 4.746-10.417 10.602-10.417 3.4 0 6.426 1.573 8.366 4.018l-4.131 2.801a5.515 5.515 0 0 0-4.235-1.989c-3.055 0-5.541 2.506-5.541 5.587 0 3.08 2.486 5.586 5.541 5.586a5.515 5.515 0 0 0 4.235-1.989zM46.629 18.494h8.548l-1.633 4.583H46.63v7.812h-4.99V10.057h16.543L56.55 14.64h-9.92v3.854zm70.586-8.438h16.216v4.584h-5.613v16.249h-4.99v-16.25h-5.613v-4.582zm18.371 20.833h5.106V10.057h-5.106v20.832zm-29.946-7.83 2.526-7.556 2.526 7.555h-5.052zm-.655-13.003L97.564 30.89h5.457l1.082-3.248h8.126l1.082 3.248h5.458l-7.422-20.832h-6.362zm-14.406 0h4.99V30.89h-3.743l-8.42-11.31v11.31h-4.989V10.057h3.742l8.42 11.308V10.057zM63.293 23.059l2.526-7.555 2.526 7.555h-5.052zm-.654-13.002L55.217 30.89h5.457l1.083-3.248h8.125l1.083 3.248h5.457L69 10.057h-6.36z"/></g></svg></svg>